<svg width="2187" height="3307" viewBox="0 0 2187 3307" fill="none" xmlns="http://www.w3.org/2000/svg">
<path d="M728.706 3.4298C636.632 14.633 526.543 55.4446 424.461 116.262C368.016 149.872 261.53 234.296 232.306 268.705C224.7 277.908 216.293 286.711 213.892 289.111C207.887 294.313 165.853 343.927 148.239 367.133C140.633 377.136 132.626 385.939 131.025 386.739C129.023 387.539 125.821 391.941 123.819 396.742C121.817 401.143 113.01 416.748 104.203 431.152C64.1709 496.37 27.3412 579.594 11.3283 639.211C-0.68133 684.424 -3.08327 757.645 6.52448 797.656C10.5277 815.261 13.7303 830.866 14.1306 833.266C14.1306 835.267 15.3316 838.068 16.5325 839.268C19.3348 841.269 37.3493 879.68 37.7496 884.081C38.15 885.681 41.3525 890.883 44.9554 895.284C48.9587 899.685 52.1613 904.487 52.1613 905.687C52.1613 910.888 98.999 956.501 122.218 974.106C171.457 1011.32 248.319 1041.33 330.385 1055.33C383.628 1064.53 513.333 1066.53 572.18 1059.33C603.005 1055.33 710.692 1036.52 823.983 1015.32C849.203 1010.52 870.421 1007.72 871.622 1008.92C872.822 1010.12 860.412 1027.72 843.599 1048.13C827.186 1068.53 800.364 1101.34 784.351 1121.35C701.084 1224.58 642.237 1290.2 557.769 1374.62C506.527 1425.84 464.493 1469.85 464.493 1473.05C464.493 1499.86 510.531 1462.25 661.052 1311.8C781.149 1191.37 836.793 1129.35 903.247 1040.53C922.062 1015.72 940.877 993.312 945.681 990.911C953.287 986.91 1212.7 924.492 1249.93 917.69L1264.74 914.89L1191.48 1036.12C1151.45 1102.94 1091 1202.17 1056.97 1257.39C916.458 1486.25 840.797 1617.09 832.79 1645.9C827.986 1661.5 828.787 1664.3 838.795 1684.31C848.403 1703.91 866.017 1719.52 877.626 1719.52C882.43 1719.52 916.858 1684.31 932.471 1663.5C938.075 1655.9 944.881 1647.5 947.282 1645.5C949.684 1643.1 978.908 1609.89 1011.73 1571.48C1064.58 1509.86 1179.47 1393.43 1217.9 1362.62C1339.6 1264.59 1415.66 1217.38 1496.93 1190.57C1530.95 1179.36 1540.56 1177.76 1581.39 1177.76C1620.63 1177.36 1629.83 1178.56 1643.44 1185.77C1671.47 1200.57 1675.47 1212.57 1675.07 1279.39C1674.67 1343.81 1667.86 1376.62 1639.44 1453.44C1625.83 1490.65 1574.59 1603.09 1569.38 1607.49C1567.38 1609.49 1536.56 1661.1 1521.35 1688.31C1513.74 1701.91 1458.09 1781.54 1434.48 1812.35C1424.87 1824.75 1417.26 1836.75 1417.26 1839.15C1417.26 1841.15 1414.86 1844.75 1412.06 1846.36C1409.25 1847.96 1401.65 1856.76 1394.84 1865.56C1309.17 1981.59 1139.04 2162.45 1013.34 2271.68C999.324 2283.68 985.713 2295.68 983.312 2297.68C980.91 2300.08 966.498 2312.49 950.885 2325.29C935.673 2338.1 914.056 2356.1 903.247 2364.9C892.438 2374.11 879.628 2384.51 875.224 2387.71C870.421 2390.91 862.414 2397.31 856.81 2402.11C851.205 2406.91 829.588 2424.52 808.771 2441.32C787.954 2458.13 768.338 2473.33 765.936 2475.73C744.319 2494.14 635.031 2575.76 632.229 2575.76C630.627 2575.76 625.823 2578.96 621.82 2582.96C613.013 2591.37 585.791 2611.77 582.989 2611.77C581.788 2611.77 576.183 2616.17 570.179 2621.78C564.174 2627.38 557.769 2631.78 555.767 2631.78C553.765 2631.78 548.561 2635.38 543.757 2639.78C538.953 2644.18 532.949 2647.78 530.146 2647.78C527.744 2647.78 524.542 2650.58 522.941 2653.79C521.74 2656.99 518.137 2659.79 514.934 2659.79C511.732 2659.79 508.529 2661.39 507.728 2663.39C506.527 2666.59 412.852 2728.61 342.395 2772.62C311.17 2792.22 305.565 2799.03 310.77 2810.63C312.371 2814.63 313.972 2820.63 314.373 2824.23C315.573 2833.44 331.987 2855.84 337.191 2855.84C339.593 2855.84 344.797 2858.64 348.8 2861.84C354.805 2867.45 356.006 2867.45 362.011 2861.84C365.614 2858.24 368.416 2856.64 368.416 2858.64C368.416 2860.24 370.017 2859.84 371.619 2857.84C376.022 2851.44 404.445 2839.44 408.849 2841.84C410.85 2843.44 412.452 2842.24 412.452 2839.84C412.452 2837.44 414.453 2836.64 416.455 2837.84C418.857 2839.04 420.458 2838.64 420.458 2836.24C420.458 2833.84 423.26 2833.04 426.463 2834.24C429.665 2835.84 432.468 2834.64 432.468 2831.84C432.468 2829.44 434.469 2828.64 436.471 2829.84C438.873 2831.04 440.474 2830.24 440.474 2827.83C440.474 2825.03 443.276 2823.83 446.479 2825.43C449.682 2826.63 452.484 2825.83 452.484 2823.43C452.484 2821.03 454.485 2820.63 456.487 2821.83C458.889 2823.03 460.49 2822.23 460.49 2819.83C460.49 2817.43 462.492 2816.63 464.493 2817.83C466.895 2819.03 471.299 2817.43 474.502 2814.23C478.104 2811.03 483.309 2809.03 486.111 2810.23C488.913 2811.43 494.518 2809.43 498.121 2805.83C501.723 2802.23 504.526 2800.23 504.526 2801.83C504.526 2803.03 508.529 2801.43 512.933 2798.23C517.736 2795.03 524.142 2793.42 526.944 2794.63C530.146 2795.83 532.548 2794.63 532.548 2791.82C532.548 2789.42 534.55 2788.62 536.552 2789.82C538.953 2791.02 540.555 2790.62 540.555 2788.22C540.555 2785.82 543.357 2785.02 546.56 2786.22C549.762 2787.82 552.564 2786.62 552.564 2783.42C552.564 2780.62 553.765 2779.82 554.966 2781.02C556.568 2782.22 561.372 2781.02 565.375 2777.82C569.778 2775.02 576.183 2773.42 578.986 2774.62C582.188 2775.82 584.59 2774.62 584.59 2772.22C584.59 2769.82 586.992 2769.02 590.195 2770.22C592.997 2771.42 598.602 2769.42 602.204 2765.82C605.807 2762.22 608.61 2760.62 608.61 2762.22C608.61 2763.42 611.412 2762.62 614.614 2759.82C617.817 2757.01 620.619 2755.81 620.619 2757.41C620.619 2759.02 624.623 2757.41 629.827 2753.81C634.631 2750.61 643.438 2747.01 648.642 2746.21C654.246 2745.41 659.451 2744.21 660.652 2743.81C661.853 2743.01 663.854 2743.01 665.856 2743.41C667.457 2743.81 677.865 2739.01 688.674 2733.41C699.883 2727.81 713.094 2722.6 718.698 2722.2C724.303 2722.2 728.706 2720.6 728.706 2719C728.706 2717.4 731.509 2717 734.711 2718.2C737.914 2719.8 740.716 2718.6 740.716 2716.2C740.716 2713.8 743.518 2713 746.721 2714.2C749.923 2715.8 752.726 2714.6 752.726 2711.4C752.726 2708.6 753.927 2707.8 755.528 2709C756.729 2710.6 760.332 2709.8 763.534 2707.4C766.337 2705 768.739 2704.2 768.739 2705.8C768.739 2707.4 771.541 2706.6 774.743 2703.8C777.946 2701 780.748 2700.2 780.748 2701.8C780.748 2703.4 783.551 2702.6 786.753 2699.8C789.956 2697 792.758 2696.2 792.758 2697.8C792.758 2699.4 795.56 2698.6 798.763 2695.8C801.965 2693 804.768 2692.2 804.768 2693.8C804.768 2695.4 807.57 2694.6 810.772 2691.8C813.975 2689 816.777 2688.19 816.777 2689.8C816.777 2691.4 819.179 2690.6 821.982 2688.19C825.184 2685.79 828.787 2684.99 829.988 2686.19C831.589 2687.79 837.194 2685.79 842.798 2682.19C848.403 2678.59 854.808 2676.59 856.81 2677.79C858.811 2678.99 861.213 2678.19 862.814 2676.19C864.015 2673.79 867.618 2672.99 870.821 2674.59C874.023 2675.79 876.826 2674.59 876.826 2671.79C876.826 2669.39 878.427 2668.19 880.429 2669.79C882.43 2670.99 885.232 2670.19 886.834 2667.79C888.435 2665.39 890.837 2664.59 892.839 2665.79C894.84 2666.99 901.245 2665.79 907.651 2662.99C913.655 2660.59 919.66 2658.19 920.861 2657.79C922.062 2657.39 928.067 2654.99 934.072 2652.58C940.477 2649.78 946.882 2648.58 948.884 2649.78C950.885 2650.98 953.287 2650.18 954.889 2648.18C956.09 2645.78 959.692 2644.98 962.895 2646.58C966.098 2647.78 968.9 2646.58 968.9 2643.78C968.9 2641.38 970.902 2640.58 972.903 2641.78C975.305 2643.38 979.709 2642.18 982.911 2639.78C986.114 2636.98 988.916 2636.18 988.916 2637.78C988.916 2639.38 991.318 2638.58 994.12 2636.18C997.323 2633.78 1000.93 2632.98 1002.13 2634.58C1003.73 2635.78 1007.33 2634.58 1010.93 2631.78C1014.14 2628.98 1016.94 2628.18 1016.94 2629.78C1016.94 2631.38 1019.74 2630.58 1022.94 2627.78C1026.15 2625.38 1030.55 2624.18 1032.55 2625.38C1034.55 2626.98 1037.36 2626.18 1038.96 2623.78C1040.56 2621.38 1042.96 2620.58 1044.96 2621.78C1046.96 2622.98 1053.37 2621.78 1059.77 2618.98C1065.78 2616.57 1072.58 2614.97 1074.59 2615.37C1076.19 2615.77 1080.19 2614.17 1082.59 2611.77C1085.39 2609.77 1089 2608.97 1090.2 2610.57C1091.8 2611.77 1095.4 2610.57 1098.6 2608.17C1101.81 2605.37 1106.61 2604.17 1108.61 2605.37C1110.61 2606.97 1113.42 2606.17 1115.02 2604.17C1116.22 2601.77 1119.82 2600.97 1122.62 2602.17C1125.83 2603.37 1129.43 2602.17 1131.03 2600.17C1132.23 2597.77 1135.43 2596.57 1137.44 2597.77C1139.44 2599.37 1143.44 2598.97 1146.24 2596.97C1148.64 2595.37 1155.45 2593.37 1161.05 2592.57C1166.66 2592.17 1173.87 2590.57 1177.07 2588.97C1184.67 2585.77 1193.48 2583.37 1201.09 2582.16C1204.69 2581.76 1209.49 2580.16 1212.3 2578.16C1214.7 2576.56 1218.7 2576.16 1220.7 2577.76C1222.7 2578.96 1225.91 2577.76 1227.11 2575.36C1228.71 2573.36 1232.31 2572.16 1235.11 2573.36C1237.92 2574.16 1241.52 2574.16 1243.12 2572.56C1244.32 2570.96 1250.73 2569.76 1257.13 2569.36C1263.54 2568.96 1271.94 2567.36 1275.95 2565.76C1279.95 2564.16 1289.56 2561.76 1297.16 2560.96C1304.77 2560.16 1312.78 2557.76 1315.58 2555.36C1317.98 2553.36 1322.79 2552.56 1326.39 2554.16C1329.59 2555.36 1333.59 2554.56 1334.79 2552.16C1336.4 2549.76 1340 2548.96 1342.8 2550.16C1346 2551.36 1349.61 2550.56 1350.81 2548.16C1352.41 2545.75 1356.01 2544.95 1359.21 2546.55C1362.82 2547.75 1368.02 2546.55 1371.22 2543.75C1374.43 2541.35 1378.83 2540.15 1381.23 2541.75C1383.23 2542.95 1387.64 2542.95 1390.04 2541.35C1392.84 2539.35 1397.65 2537.75 1401.25 2537.35C1404.45 2536.55 1413.66 2535.35 1421.26 2534.15C1428.87 2532.95 1438.88 2531.35 1443.28 2530.55C1447.69 2529.75 1460.5 2527.35 1471.3 2525.75C1482.51 2524.15 1492.92 2521.75 1494.92 2520.55C1498.53 2518.55 1508.53 2516.95 1525.35 2515.35C1528.55 2515.35 1568.98 2508.94 1615.02 2501.34C1660.66 2493.74 1703.49 2487.74 1709.9 2487.74C1716.3 2487.74 1721.51 2485.74 1721.51 2483.74C1721.51 2481.34 1727.11 2479.74 1733.92 2479.74C1745.53 2479.74 1746.33 2480.54 1743.52 2490.94C1742.32 2496.94 1705.49 2631.38 1662.66 2789.82C1574.19 3115.52 1563.78 3155.93 1556.97 3204.74C1550.97 3245.15 1554.17 3261.16 1573.39 3287.57C1589.8 3309.97 1596.61 3311.97 1607.81 3297.97C1613.02 3291.57 1616.22 3285.17 1615.02 3283.16C1613.82 3281.56 1614.62 3279.96 1617.02 3279.96C1621.83 3279.96 1629.43 3257.16 1630.63 3239.15C1631.03 3231.95 1633.04 3223.55 1634.64 3220.75C1636.64 3217.95 1636.64 3212.34 1635.44 3207.94C1633.84 3203.14 1634.64 3199.94 1637.84 3199.94C1640.64 3199.94 1641.44 3195.94 1640.24 3187.94C1638.64 3180.74 1639.44 3175.93 1641.84 3175.93C1644.24 3175.93 1645.45 3171.93 1645.04 3166.73C1644.64 3161.93 1645.45 3154.73 1647.05 3151.13C1649.05 3147.13 1650.65 3136.32 1650.65 3127.12C1651.05 3117.52 1652.65 3108.71 1654.65 3107.51C1656.25 3106.31 1658.26 3098.31 1658.66 3089.51C1659.46 3081.11 1661.46 3070.7 1663.06 3067.1C1664.66 3063.5 1665.06 3058.3 1663.46 3055.9C1662.26 3053.9 1662.66 3051.9 1664.66 3051.9C1669.06 3051.9 1678.27 3008.69 1675.07 3003.48C1673.87 3001.48 1675.07 2999.88 1677.47 2999.88C1680.27 2999.88 1681.07 2996.68 1679.47 2991.88C1677.87 2987.08 1678.67 2983.88 1681.47 2983.88C1684.28 2983.88 1685.48 2980.68 1684.28 2975.88C1683.08 2971.88 1683.88 2967.87 1685.88 2967.07C1687.88 2966.27 1689.88 2958.27 1690.68 2949.07C1691.08 2939.47 1692.68 2931.86 1693.88 2931.86C1697.49 2931.86 1705.49 2892.65 1703.09 2885.85C1701.49 2882.65 1702.69 2879.85 1705.49 2879.85C1708.3 2879.85 1709.1 2876.65 1707.5 2871.85C1705.89 2867.05 1706.69 2863.85 1709.5 2863.85C1712.3 2863.85 1713.1 2861.04 1711.9 2857.04C1710.3 2853.44 1711.1 2849.44 1713.1 2847.84C1715.5 2846.64 1717.9 2839.44 1718.3 2831.84C1719.1 2824.23 1721.11 2816.63 1723.11 2815.43C1725.11 2813.83 1726.71 2805.43 1726.71 2796.23C1726.71 2787.02 1728.31 2779.82 1730.31 2779.82C1732.72 2779.82 1733.12 2776.62 1731.91 2773.02C1730.31 2769.42 1730.71 2765.42 1732.72 2764.22C1737.12 2761.42 1758.74 2675.39 1755.53 2672.59C1754.73 2671.39 1755.53 2668.19 1757.54 2665.39C1759.94 2662.99 1761.54 2658.99 1761.14 2657.39C1760.74 2655.39 1761.54 2650.98 1762.74 2647.78C1768.74 2632.98 1776.75 2594.57 1774.75 2589.37C1773.55 2586.17 1774.75 2583.77 1777.55 2583.77C1779.95 2583.77 1781.55 2580.56 1781.15 2576.56C1780.75 2572.96 1781.55 2566.96 1782.76 2563.76C1788.36 2550.16 1797.17 2510.14 1795.17 2506.94C1793.96 2505.34 1794.37 2501.34 1796.37 2498.54C1797.97 2496.14 1799.57 2491.74 1799.57 2489.74C1800.77 2475.73 1806.78 2472.53 1838.8 2469.73C1856.82 2468.13 1873.23 2465.73 1875.63 2464.53C1877.63 2463.33 1886.04 2462.53 1894.05 2463.33C1902.05 2463.73 1910.06 2462.53 1911.26 2460.13C1912.86 2458.13 1921.67 2456.93 1931.68 2457.33C1941.68 2458.13 1949.69 2456.93 1949.69 2454.93C1949.69 2452.93 1960.9 2452.53 1975.71 2454.13C1992.93 2455.73 2001.73 2455.33 2001.73 2452.53C2001.73 2450.13 2011.34 2448.93 2027.75 2450.13C2043.37 2450.93 2053.77 2449.73 2053.77 2447.33C2053.77 2444.93 2059.38 2444.53 2067.79 2446.13C2087 2449.73 2099.41 2440.52 2108.22 2416.92C2111.82 2406.51 2116.62 2396.11 2118.23 2394.11C2123.43 2388.11 2113.82 2368.9 2103.41 2364.1C2088.6 2357.7 2062.18 2358.5 1956.1 2369.7C1852.81 2380.51 1821.59 2382.11 1821.59 2375.71C1821.59 2373.31 1823.59 2371.7 1825.99 2371.7C1828.39 2371.7 1829.19 2368.9 1827.99 2365.3C1826.39 2361.7 1827.59 2356.1 1829.99 2352.9C1832.8 2350.1 1833.6 2346.5 1832.4 2344.9C1830.79 2343.7 1831.6 2340.1 1833.6 2337.3C1836 2334.89 1838.4 2326.09 1839.2 2318.89C1840 2311.29 1841.6 2302.89 1843.2 2300.08C1844.81 2297.68 1845.21 2294.08 1843.6 2292.08C1842.4 2290.08 1843.6 2286.88 1846.01 2285.68C1848.01 2284.08 1849.21 2280.48 1848.01 2277.28C1846.81 2274.48 1847.61 2270.88 1850.01 2269.28C1852.41 2268.08 1853.21 2264.47 1852.01 2261.67C1851.21 2258.87 1852.01 2254.87 1854.01 2252.87C1856.01 2250.87 1858.42 2242.07 1859.62 2233.27C1860.42 2224.86 1861.62 2216.86 1862.02 2215.66C1862.42 2214.46 1862.42 2212.06 1862.02 2210.06C1861.62 2208.46 1863.22 2204.46 1866.02 2201.26C1868.42 2198.46 1869.23 2194.05 1868.02 2192.05C1866.42 2190.05 1867.22 2186.85 1869.63 2185.65C1872.03 2184.05 1872.83 2179.65 1871.63 2175.25C1870.03 2170.85 1870.83 2167.65 1873.63 2167.65C1876.43 2167.65 1877.63 2164.45 1876.43 2159.64C1875.23 2155.24 1876.03 2150.44 1878.43 2149.24C1880.43 2148.04 1881.24 2144.44 1880.03 2141.24C1878.83 2138.04 1879.23 2135.64 1881.24 2135.64C1885.64 2135.64 1894.05 2097.23 1891.24 2089.62C1889.64 2086.42 1890.84 2083.62 1893.65 2083.62C1896.45 2083.62 1897.25 2080.42 1895.65 2076.02C1894.45 2071.62 1895.25 2067.22 1897.65 2065.62C1900.05 2064.42 1900.85 2061.62 1899.65 2060.02C1898.85 2058.02 1900.45 2050.81 1904.05 2044.01C1907.26 2037.21 1910.46 2025.21 1910.86 2017.6C1911.26 2010 1913.26 2003.6 1915.26 2003.6C1916.86 2003.6 1917.26 1999.2 1916.06 1993.6C1914.46 1987.2 1915.26 1983.59 1918.06 1983.59C1920.47 1983.59 1921.67 1979.99 1920.47 1975.59C1919.27 1971.19 1920.07 1967.59 1922.47 1967.59C1924.87 1967.59 1925.67 1963.99 1924.47 1959.59C1923.27 1955.19 1924.07 1951.59 1926.47 1951.59C1928.87 1951.59 1929.67 1947.98 1928.47 1943.58C1927.27 1939.58 1928.07 1935.58 1930.47 1934.78C1932.48 1933.98 1934.48 1926.78 1934.88 1918.38C1935.28 1910.37 1937.28 1903.57 1938.88 1903.57C1940.88 1903.57 1940.88 1899.97 1939.68 1895.57C1938.08 1890.77 1938.88 1887.57 1941.68 1887.57C1944.49 1887.57 1945.69 1884.37 1944.49 1879.56C1943.29 1875.16 1944.09 1871.56 1946.49 1871.56C1948.49 1871.56 1948.89 1867.96 1947.69 1863.56C1946.09 1858.76 1946.89 1855.56 1949.69 1855.56C1952.89 1855.56 1953.69 1851.96 1952.09 1845.96C1950.89 1840.75 1951.69 1835.55 1953.69 1834.75C1956.1 1833.95 1958.1 1827.55 1958.9 1820.35C1959.3 1813.55 1961.3 1807.54 1963.3 1807.54C1964.9 1807.54 1965.7 1803.94 1964.5 1799.54C1963.3 1795.14 1964.1 1791.54 1966.5 1791.54C1968.91 1791.54 1969.71 1788.74 1968.11 1785.54C1966.9 1782.34 1967.7 1779.54 1970.11 1779.54C1972.51 1779.54 1973.31 1775.94 1971.71 1771.93C1970.51 1767.53 1971.31 1763.13 1973.71 1761.53C1976.11 1760.33 1976.91 1757.53 1975.71 1755.53C1974.51 1753.53 1975.31 1751.13 1977.31 1749.53C1979.71 1748.33 1980.52 1744.73 1978.91 1741.53C1977.71 1738.32 1978.91 1735.52 1981.72 1735.52C1984.52 1735.52 1985.72 1732.72 1984.12 1729.52C1982.92 1726.32 1983.72 1723.52 1986.12 1723.52C1988.52 1723.52 1988.92 1721.52 1987.72 1719.52C1986.52 1717.12 1986.52 1713.12 1988.52 1710.32C1990.12 1707.92 1991.72 1703.51 1991.72 1701.51C1992.52 1689.91 1998.93 1671.51 2002.13 1671.51C2004.53 1671.51 2004.93 1667.9 2003.73 1663.5C2002.13 1658.7 2002.93 1655.5 2005.74 1655.5C2008.54 1655.5 2009.74 1653.1 2008.54 1649.9C2007.34 1646.7 2007.74 1643.5 2010.14 1642.7C2014.54 1641.1 2010.54 1615.49 2005.74 1615.49C2004.13 1615.49 1998.53 1623.89 1993.73 1634.29C1960.5 1705.91 1942.88 1754.33 1920.07 1837.55C1914.86 1857.16 1902.85 1900.37 1893.65 1933.58C1884.44 1966.39 1873.63 2005.2 1869.63 2019.6C1865.62 2034.01 1845.61 2107.63 1824.39 2183.65C1803.57 2259.67 1782.36 2337.3 1777.55 2356.5L1768.34 2391.31L1749.93 2394.11C1419.66 2439.32 1076.19 2516.95 772.742 2615.37C717.097 2633.38 712.293 2634.58 723.502 2625.38C730.708 2619.78 737.113 2615.37 738.314 2615.37C739.515 2615.37 745.92 2610.17 753.126 2603.37C759.932 2596.97 767.137 2591.77 769.539 2591.77C774.743 2591.77 809.972 2564.56 813.975 2557.36C815.576 2554.16 819.58 2551.76 822.382 2551.76C825.584 2551.76 829.187 2548.96 830.388 2545.35C831.589 2542.15 834.392 2540.15 836.793 2541.75C838.795 2542.95 842.798 2540.55 845.601 2535.75C848.403 2531.35 852.806 2527.75 854.808 2527.75C857.21 2527.75 865.216 2521.35 872.822 2513.75C880.429 2506.14 888.435 2499.74 890.837 2499.74C893.639 2499.74 902.046 2493.34 910.052 2485.74C918.059 2478.14 926.065 2471.73 928.067 2471.73C930.069 2471.73 939.676 2463.73 949.284 2453.73C958.892 2443.73 968.5 2435.72 970.501 2435.72C972.503 2435.72 978.107 2431.72 983.312 2426.92C988.516 2421.72 998.123 2413.32 1005.33 2407.72C1012.13 2402.11 1021.74 2393.71 1026.55 2389.31C1030.95 2384.51 1045.76 2372.1 1058.97 2361.3C1072.58 2350.5 1094.2 2331.29 1107.01 2318.49C1205.89 2222.86 1245.92 2182.85 1289.96 2135.64C1317.98 2106.03 1348.41 2073.62 1358.01 2063.62C1367.62 2053.61 1379.63 2039.61 1385.24 2032.01C1396.04 2017.2 1409.25 2002 1436.08 1972.39C1445.68 1961.99 1453.29 1951.59 1453.29 1949.58C1453.29 1947.18 1459.7 1938.78 1467.3 1930.38C1474.91 1921.98 1481.31 1913.57 1481.31 1911.17C1481.31 1909.17 1482.91 1907.57 1484.92 1907.57C1490.12 1907.57 1568.58 1797.14 1582.19 1771.13C1587.8 1759.93 1594.2 1749.53 1596.21 1747.93C1602.21 1743.53 1613.42 1723.92 1613.42 1717.52C1613.42 1713.92 1616.22 1710.32 1619.42 1709.12C1622.63 1707.92 1627.43 1700.71 1630.23 1693.11C1632.63 1685.51 1636.24 1679.51 1637.44 1679.51C1640.24 1679.51 1647.05 1664.7 1657.86 1636.3C1660.66 1628.69 1665.06 1620.69 1667.46 1617.89C1675.87 1609.49 1693.88 1571.48 1691.48 1567.48C1689.88 1565.07 1690.68 1563.47 1692.68 1563.47C1697.49 1563.47 1706.29 1543.87 1703.49 1539.47C1702.29 1537.47 1704.29 1533.07 1707.9 1529.46C1711.5 1525.86 1713.5 1521.86 1712.3 1520.66C1711.1 1519.46 1712.7 1515.86 1715.9 1512.66C1719.1 1509.06 1721.11 1503.86 1719.91 1501.06C1718.7 1497.86 1719.5 1495.46 1721.91 1495.46C1724.31 1495.46 1725.51 1492.65 1723.91 1489.45C1722.71 1486.25 1723.51 1483.45 1725.91 1483.45C1728.31 1483.45 1729.51 1480.65 1728.31 1477.45C1726.71 1474.25 1727.51 1470.65 1729.91 1469.45C1731.91 1467.85 1732.72 1465.05 1731.51 1463.05C1729.91 1461.05 1730.71 1459.44 1732.72 1459.44C1737.12 1459.44 1750.73 1416.63 1747.53 1411.43C1746.33 1409.03 1747.13 1407.43 1749.93 1407.43C1752.33 1407.43 1753.53 1404.23 1752.33 1399.43C1751.13 1395.03 1751.93 1391.43 1754.33 1391.43C1756.73 1391.43 1757.54 1387.02 1755.93 1381.82C1754.73 1376.22 1755.53 1370.62 1757.54 1369.42C1759.94 1367.82 1760.74 1363.42 1759.54 1359.42C1758.34 1355.42 1759.14 1351.01 1761.54 1349.41C1764.34 1347.81 1765.14 1342.21 1763.54 1336.61C1762.34 1331.01 1763.14 1324.21 1765.54 1321.01C1771.55 1313.8 1768.34 1205.77 1761.94 1189.37C1759.14 1182.57 1757.14 1176.96 1757.14 1176.16C1757.54 1175.76 1755.13 1169.36 1751.93 1161.76C1738.32 1129.35 1678.67 1080.94 1647.85 1077.74C1643.04 1077.34 1637.44 1075.74 1635.44 1074.94C1625.83 1069.73 1594.2 1068.93 1555.37 1072.53C1542.16 1074.13 1528.55 1075.34 1525.35 1075.34C1522.15 1075.74 1515.74 1077.34 1511.34 1079.34C1506.93 1081.34 1488.92 1086.94 1471.3 1091.74C1429.27 1103.34 1337.2 1148.16 1287.16 1181.37C1240.32 1212.57 1171.86 1267.39 1113.02 1320.61C1089.8 1341.81 1070.58 1358.22 1069.78 1357.42C1068.98 1356.62 1103.01 1295.4 1145.44 1220.98C1187.88 1146.16 1233.51 1065.33 1247.12 1041.33C1260.74 1016.92 1283.55 976.907 1297.56 951.7C1311.58 926.893 1326.79 904.086 1331.19 901.286C1335.6 898.485 1391.64 884.081 1455.29 869.277C1519.34 854.072 1585.8 838.868 1603.41 834.467C1621.03 830.465 1642.64 825.664 1651.45 823.664C1660.26 821.663 1706.69 810.86 1754.33 799.657C1874.03 771.649 2076.99 728.837 2115.82 723.235C2151.45 718.033 2183.08 703.229 2179.48 693.226C2177.87 690.025 2179.07 687.225 2181.88 687.225C2184.28 687.225 2185.48 685.624 2183.88 683.624C2182.68 681.623 2183.08 678.822 2185.08 677.622C2187.08 676.422 2187.48 668.019 2186.28 658.416C2184.28 643.212 2182.28 640.811 2169.87 636.41C2150.25 629.608 2139.44 630.008 2075.79 639.211C2003.33 650.014 1959.7 658.817 1725.51 711.632C1618.62 735.638 1526.95 756.044 1521.35 756.444C1515.74 757.245 1508.94 759.245 1506.13 760.846C1503.33 762.446 1499.73 762.846 1497.73 761.246C1495.72 760.045 1492.92 760.846 1491.32 762.846C1490.12 764.847 1486.12 766.847 1482.11 766.847C1478.51 766.847 1456.49 771.249 1433.67 776.85C1410.86 782.852 1391.24 786.853 1390.44 786.053C1389.64 785.253 1406.85 748.042 1428.87 703.229C1450.89 658.416 1468.1 620.406 1467.3 618.805C1466.1 617.205 1466.9 615.204 1468.9 614.404C1474.51 612.403 1509.74 538.782 1506.93 534.781C1505.73 532.781 1506.53 531.18 1508.53 531.18C1513.74 531.18 1566.18 407.945 1563.38 403.144C1562.18 401.143 1562.98 399.143 1564.98 398.342C1570.18 396.742 1589.8 346.728 1587 342.726C1585.8 340.726 1586.6 339.125 1588.6 339.125C1593.4 339.125 1605.81 307.116 1603.01 302.715C1601.81 300.715 1603.01 299.114 1605.41 299.114C1607.81 299.114 1608.62 297.113 1607.41 295.113C1606.21 292.712 1607.01 291.112 1609.42 291.112C1612.22 291.112 1613.42 288.711 1612.62 286.31C1611.42 283.51 1613.02 278.708 1616.22 275.907C1624.23 267.905 1623.03 251.1 1614.62 251.1C1604.61 251.1 1595 267.905 1561.78 343.127C1484.12 518.377 1358.01 765.647 1331.99 794.455C1324.39 802.858 1306.77 809.259 1281.95 813.261C1273.15 814.861 1163.86 840.868 1044.96 869.277C1032.95 872.477 1022.54 874.078 1021.34 873.278C1020.54 872.477 1023.74 866.876 1028.15 860.474C1044.16 838.068 1093.8 744.841 1115.02 697.228C1140.64 640.811 1170.26 551.986 1179.47 505.173C1183.07 487.568 1186.68 447.956 1187.88 417.148C1189.48 369.934 1188.68 354.73 1181.47 319.92C1173.06 279.108 1155.05 227.894 1142.64 209.088C1139.04 203.487 1137.04 199.086 1138.64 199.086C1139.84 199.086 1138.24 195.885 1135.03 191.884C1132.23 188.282 1121.42 173.878 1111.41 160.675C1062.18 94.6558 973.303 33.8385 892.839 11.032C856.81 1.02911 779.948 -2.57191 728.706 3.4298ZM874.023 85.4532C901.646 91.4549 977.307 124.264 980.109 131.466C980.91 133.467 984.112 135.067 987.315 135.067C990.517 135.067 992.919 136.268 992.919 138.268C992.919 139.869 1002.13 148.271 1013.34 157.074C1064.58 197.085 1110.21 269.906 1123.42 333.124C1145.84 439.954 1115.82 584.795 1040.16 737.239C1006.13 804.858 960.493 883.281 951.686 889.282C943.279 894.084 718.698 942.898 638.634 956.902C584.991 966.104 476.903 972.906 422.46 970.105C368.016 967.304 316.774 960.503 309.569 954.501C306.766 952.5 302.763 951.7 300.361 953.301C297.959 954.901 293.556 953.701 290.353 951.3C287.151 948.499 284.348 947.699 284.348 949.299C284.348 950.9 281.546 950.1 278.343 947.299C274.741 944.498 271.138 943.298 269.937 944.498C266.734 947.299 223.099 931.694 219.896 926.493C218.695 924.492 216.694 923.292 215.893 924.092C213.091 926.093 180.264 910.488 180.264 906.487C180.264 904.887 177.863 903.286 175.06 903.286C172.258 903.286 163.851 898.485 156.245 892.083C118.214 861.274 93.7948 824.464 82.1854 781.251C52.1613 665.619 142.234 476.765 303.163 318.32C356.006 265.905 384.029 243.098 446.479 202.286C529.346 147.471 637.433 99.8573 712.293 85.0531C750.324 77.4509 838.795 77.4509 874.023 85.4532Z" fill="#E62D86"/>
</svg>
